<svg width="37" height="12" viewBox="0 0 37 12" fill="none" xmlns="http://www.w3.org/2000/svg">
<path d="M6.324 7.708C6.324 8.092 6.228 8.46 6.036 8.812C5.844 9.156 5.56 9.444 5.184 9.676C4.816 9.908 4.372 10.04 3.852 10.072V11.044H3.204V10.072C2.476 10.008 1.884 9.776 1.428 9.376C0.972 8.968 0.74 8.452 0.732 7.828H1.896C1.928 8.164 2.052 8.456 2.268 8.704C2.492 8.952 2.804 9.108 3.204 9.172V6.172C2.668 6.036 2.236 5.896 1.908 5.752C1.58 5.608 1.3 5.384 1.068 5.08C0.836 4.776 0.72 4.368 0.72 3.856C0.72 3.208 0.944 2.672 1.392 2.248C1.848 1.824 2.452 1.588 3.204 1.54V0.543999H3.852V1.54C4.532 1.596 5.08 1.816 5.496 2.2C5.912 2.576 6.152 3.068 6.216 3.676H5.052C5.012 3.396 4.888 3.144 4.68 2.92C4.472 2.688 4.196 2.536 3.852 2.464V5.392C4.38 5.528 4.808 5.668 5.136 5.812C5.472 5.948 5.752 6.168 5.976 6.472C6.208 6.776 6.324 7.188 6.324 7.708ZM1.836 3.796C1.836 4.188 1.952 4.488 2.184 4.696C2.416 4.904 2.756 5.076 3.204 5.212V2.44C2.788 2.48 2.456 2.616 2.208 2.848C1.96 3.072 1.836 3.388 1.836 3.796ZM3.852 9.184C4.284 9.136 4.62 8.98 4.86 8.716C5.108 8.452 5.232 8.136 5.232 7.768C5.232 7.376 5.112 7.076 4.872 6.868C4.632 6.652 4.292 6.48 3.852 6.352V9.184ZM13.9808 4.084C13.9808 4.78 13.7408 5.36 13.2608 5.824C12.7888 6.28 12.0648 6.508 11.0888 6.508H9.48084V10H8.38884V1.636H11.0888C12.0328 1.636 12.7488 1.864 13.2368 2.32C13.7328 2.776 13.9808 3.364 13.9808 4.084ZM11.0888 5.608C11.6968 5.608 12.1448 5.476 12.4328 5.212C12.7208 4.948 12.8648 4.572 12.8648 4.084C12.8648 3.052 12.2728 2.536 11.0888 2.536H9.48084V5.608H11.0888ZM16.4301 4.492C16.6221 4.116 16.8941 3.824 17.2461 3.616C17.6061 3.408 18.0421 3.304 18.5541 3.304V4.432H18.2661C17.0421 4.432 16.4301 5.096 16.4301 6.424V10H15.3381V3.424H16.4301V4.492ZM20.3786 2.356C20.1706 2.356 19.9946 2.284 19.8506 2.14C19.7066 1.996 19.6346 1.82 19.6346 1.612C19.6346 1.404 19.7066 1.228 19.8506 1.084C19.9946 0.94 20.1706 0.868 20.3786 0.868C20.5786 0.868 20.7466 0.94 20.8826 1.084C21.0266 1.228 21.0986 1.404 21.0986 1.612C21.0986 1.82 21.0266 1.996 20.8826 2.14C20.7466 2.284 20.5786 2.356 20.3786 2.356ZM20.9066 3.424V10H19.8146V3.424H20.9066ZM22.3598 6.7C22.3598 6.02 22.4958 5.428 22.7678 4.924C23.0398 4.412 23.4158 4.016 23.8958 3.736C24.3838 3.456 24.9398 3.316 25.5638 3.316C26.3718 3.316 27.0358 3.512 27.5558 3.904C28.0838 4.296 28.4318 4.84 28.5998 5.536H27.4238C27.3118 5.136 27.0918 4.82 26.7638 4.588C26.4438 4.356 26.0438 4.24 25.5638 4.24C24.9398 4.24 24.4358 4.456 24.0518 4.888C23.6678 5.312 23.4758 5.916 23.4758 6.7C23.4758 7.492 23.6678 8.104 24.0518 8.536C24.4358 8.968 24.9398 9.184 25.5638 9.184C26.0438 9.184 26.4438 9.072 26.7638 8.848C27.0838 8.624 27.3038 8.304 27.4238 7.888H28.5998C28.4238 8.56 28.0718 9.1 27.5438 9.508C27.0158 9.908 26.3558 10.108 25.5638 10.108C24.9398 10.108 24.3838 9.968 23.8958 9.688C23.4158 9.408 23.0398 9.012 22.7678 8.5C22.4958 7.988 22.3598 7.388 22.3598 6.7ZM36.0568 6.46C36.0568 6.668 36.0448 6.888 36.0208 7.12H30.7648C30.8048 7.768 31.0248 8.276 31.4248 8.644C31.8328 9.004 32.3248 9.184 32.9008 9.184C33.3728 9.184 33.7648 9.076 34.0768 8.86C34.3968 8.636 34.6208 8.34 34.7488 7.972H35.9248C35.7488 8.604 35.3968 9.12 34.8688 9.52C34.3408 9.912 33.6848 10.108 32.9008 10.108C32.2768 10.108 31.7168 9.968 31.2208 9.688C30.7328 9.408 30.3488 9.012 30.0688 8.5C29.7888 7.98 29.6488 7.38 29.6488 6.7C29.6488 6.02 29.7848 5.424 30.0568 4.912C30.3288 4.4 30.7088 4.008 31.1968 3.736C31.6928 3.456 32.2608 3.316 32.9008 3.316C33.5248 3.316 34.0768 3.452 34.5568 3.724C35.0368 3.996 35.4048 4.372 35.6608 4.852C35.9248 5.324 36.0568 5.86 36.0568 6.46ZM34.9288 6.232C34.9288 5.816 34.8368 5.46 34.6528 5.164C34.4688 4.86 34.2168 4.632 33.8968 4.48C33.5848 4.32 33.2368 4.24 32.8528 4.24C32.3008 4.24 31.8288 4.416 31.4368 4.768C31.0528 5.12 30.8328 5.608 30.7768 6.232H34.9288Z" fill="#564E4E"/>
</svg>
